<svg width="16" height="10" viewBox="0 0 16 10" fill="none" xmlns="http://www.w3.org/2000/svg">
<path d="M15.3074 5.6926H2.36462L5.45295 8.78113C5.7235 9.05153 5.7235 9.49016 5.45295 9.76052C5.18239 10.0311 4.74375 10.0311 4.4736 9.76052L0.202918 5.48976C-0.0676393 5.21937 -0.0676393 4.78069 0.202918 4.51037L4.4736 0.239416C4.60883 0.104097 4.78607 0.0365391 4.96327 0.0365391C5.14047 0.0365391 5.31771 0.104097 5.45295 0.239416C5.7235 0.509813 5.7235 0.94845 5.45295 1.21877L2.36462 4.30746H15.3074C15.6898 4.30746 16 4.61757 16 5.00005C16 5.38253 15.6899 5.6926 15.3074 5.6926Z" fill="#4F4F4F"/>
</svg>
