<svg width="174" height="40" viewBox="0 0 174 40" fill="none" xmlns="http://www.w3.org/2000/svg">
<path d="M4.22754 14.9697L6.77637 4.20312H8.2002L8.52539 5.99609L5.80957 17H4.28027L4.22754 14.9697ZM2.91797 4.20312L5.02734 14.9697L4.85156 17H3.14648L0.307617 4.20312H2.91797ZM10.7666 14.9258L12.8496 4.20312H15.46L12.6299 17H10.9248L10.7666 14.9258ZM9 4.20312L11.5664 15.0137L11.4961 17H9.9668L7.2334 5.9873L7.58496 4.20312H9ZM21.709 6.3916L18.2285 17H15.4248L20.1797 4.20312H21.9639L21.709 6.3916ZM24.6006 17L21.1113 6.3916L20.8301 4.20312H22.6318L27.4131 17H24.6006ZM24.4424 12.2363V14.3018H17.6836V12.2363H24.4424ZM28.5996 4.20312H33.3721C34.3506 4.20312 35.1914 4.34961 35.8945 4.64258C36.6035 4.93555 37.1484 5.36914 37.5293 5.94336C37.9102 6.51758 38.1006 7.22363 38.1006 8.06152C38.1006 8.74707 37.9834 9.33594 37.749 9.82812C37.5205 10.3145 37.1953 10.7217 36.7734 11.0498C36.3574 11.3721 35.8682 11.6299 35.3057 11.8232L34.4707 12.2627H30.3223L30.3047 10.2061H33.3896C33.8525 10.2061 34.2363 10.124 34.541 9.95996C34.8457 9.7959 35.0742 9.56738 35.2266 9.27441C35.3848 8.98145 35.4639 8.6416 35.4639 8.25488C35.4639 7.84473 35.3877 7.49023 35.2354 7.19141C35.083 6.89258 34.8516 6.66406 34.541 6.50586C34.2305 6.34766 33.8408 6.26855 33.3721 6.26855H31.2363V17H28.5996V4.20312ZM35.7539 17L32.8359 11.2959L35.6221 11.2783L38.5752 16.877V17H35.7539ZM40.1309 4.20312H44.9033C45.8818 4.20312 46.7227 4.34961 47.4258 4.64258C48.1348 4.93555 48.6797 5.36914 49.0605 5.94336C49.4414 6.51758 49.6318 7.22363 49.6318 8.06152C49.6318 8.74707 49.5146 9.33594 49.2803 9.82812C49.0518 10.3145 48.7266 10.7217 48.3047 11.0498C47.8887 11.3721 47.3994 11.6299 46.8369 11.8232L46.002 12.2627H41.8535L41.8359 10.2061H44.9209C45.3838 10.2061 45.7676 10.124 46.0723 9.95996C46.377 9.7959 46.6055 9.56738 46.7578 9.27441C46.916 8.98145 46.9951 8.6416 46.9951 8.25488C46.9951 7.84473 46.9189 7.49023 46.7666 7.19141C46.6143 6.89258 46.3828 6.66406 46.0723 6.50586C45.7617 6.34766 45.3721 6.26855 44.9033 6.26855H42.7676V17H40.1309V4.20312ZM47.2852 17L44.3672 11.2959L47.1533 11.2783L50.1064 16.877V17H47.2852ZM56.8652 6.3916L53.3848 17H50.5811L55.3359 4.20312H57.1201L56.8652 6.3916ZM59.7568 17L56.2676 6.3916L55.9863 4.20312H57.7881L62.5693 17H59.7568ZM59.5986 12.2363V14.3018H52.8398V12.2363H59.5986ZM74.1709 4.20312V17H71.5342L66.3926 8.42188V17H63.7559V4.20312H66.3926L71.543 12.79V4.20312H74.1709ZM81.9229 4.20312V17H79.2949V4.20312H81.9229ZM85.8604 4.20312V6.26855H75.4189V4.20312H85.8604ZM89.2617 4.20312L91.9336 10.0391L94.6055 4.20312H97.4795L93.2695 12.3418V17H90.5977V12.3418L86.3789 4.20312H89.2617ZM109.793 13.6514C109.793 13.4229 109.758 13.2178 109.688 13.0361C109.623 12.8486 109.5 12.6787 109.318 12.5264C109.137 12.3682 108.882 12.2129 108.554 12.0605C108.226 11.9082 107.801 11.75 107.279 11.5859C106.699 11.3984 106.148 11.1875 105.627 10.9531C105.111 10.7188 104.654 10.4463 104.256 10.1357C103.863 9.81934 103.553 9.45312 103.324 9.03711C103.102 8.62109 102.99 8.1377 102.99 7.58691C102.99 7.05371 103.107 6.57031 103.342 6.13672C103.576 5.69727 103.904 5.32227 104.326 5.01172C104.748 4.69531 105.246 4.45215 105.82 4.28223C106.4 4.1123 107.036 4.02734 107.728 4.02734C108.671 4.02734 109.494 4.19727 110.197 4.53711C110.9 4.87695 111.445 5.34277 111.832 5.93457C112.225 6.52637 112.421 7.20312 112.421 7.96484H109.802C109.802 7.58984 109.723 7.26172 109.564 6.98047C109.412 6.69336 109.178 6.46777 108.861 6.30371C108.551 6.13965 108.158 6.05762 107.684 6.05762C107.227 6.05762 106.846 6.12793 106.541 6.26855C106.236 6.40332 106.008 6.58789 105.855 6.82227C105.703 7.05078 105.627 7.30859 105.627 7.5957C105.627 7.8125 105.68 8.00879 105.785 8.18457C105.896 8.36035 106.061 8.52441 106.277 8.67676C106.494 8.8291 106.761 8.97266 107.077 9.10742C107.394 9.24219 107.76 9.37402 108.176 9.50293C108.873 9.71387 109.485 9.95117 110.013 10.2148C110.546 10.4785 110.991 10.7744 111.349 11.1025C111.706 11.4307 111.976 11.8027 112.157 12.2188C112.339 12.6348 112.43 13.1064 112.43 13.6338C112.43 14.1904 112.321 14.6885 112.104 15.1279C111.888 15.5674 111.574 15.9395 111.164 16.2441C110.754 16.5488 110.265 16.7803 109.696 16.9385C109.128 17.0967 108.492 17.1758 107.789 17.1758C107.156 17.1758 106.532 17.0938 105.917 16.9297C105.302 16.7598 104.742 16.5049 104.238 16.165C103.74 15.8252 103.342 15.3916 103.043 14.8643C102.744 14.3369 102.595 13.7129 102.595 12.9922H105.24C105.24 13.3906 105.302 13.7275 105.425 14.0029C105.548 14.2783 105.721 14.501 105.943 14.6709C106.172 14.8408 106.441 14.9639 106.752 15.04C107.068 15.1162 107.414 15.1543 107.789 15.1543C108.246 15.1543 108.621 15.0898 108.914 14.9609C109.213 14.832 109.433 14.6533 109.573 14.4248C109.72 14.1963 109.793 13.9385 109.793 13.6514ZM122.81 14.9434V17H115.998V14.9434H122.81ZM116.859 4.20312V17H114.223V4.20312H116.859ZM121.922 9.41504V11.4189H115.998V9.41504H121.922ZM122.801 4.20312V6.26855H115.998V4.20312H122.801ZM124.348 4.20312H129.12C130.099 4.20312 130.939 4.34961 131.643 4.64258C132.352 4.93555 132.896 5.36914 133.277 5.94336C133.658 6.51758 133.849 7.22363 133.849 8.06152C133.849 8.74707 133.731 9.33594 133.497 9.82812C133.269 10.3145 132.943 10.7217 132.521 11.0498C132.105 11.3721 131.616 11.6299 131.054 11.8232L130.219 12.2627H126.07L126.053 10.2061H129.138C129.601 10.2061 129.984 10.124 130.289 9.95996C130.594 9.7959 130.822 9.56738 130.975 9.27441C131.133 8.98145 131.212 8.6416 131.212 8.25488C131.212 7.84473 131.136 7.49023 130.983 7.19141C130.831 6.89258 130.6 6.66406 130.289 6.50586C129.979 6.34766 129.589 6.26855 129.12 6.26855H126.984V17H124.348V4.20312ZM131.502 17L128.584 11.2959L131.37 11.2783L134.323 16.877V17H131.502ZM140.317 14.3281L143.332 4.20312H146.268L141.812 17H139.878L140.317 14.3281ZM137.54 4.20312L140.546 14.3281L141.003 17H139.052L134.622 4.20312H137.54ZM150.267 4.20312V17H147.639V4.20312H150.267ZM160.154 12.7549H162.782C162.729 13.6162 162.492 14.3809 162.07 15.0488C161.654 15.7168 161.071 16.2383 160.321 16.6133C159.577 16.9883 158.681 17.1758 157.632 17.1758C156.812 17.1758 156.076 17.0352 155.426 16.7539C154.775 16.4668 154.219 16.0566 153.756 15.5234C153.299 14.9902 152.95 14.3457 152.71 13.5898C152.47 12.834 152.35 11.9873 152.35 11.0498V10.1621C152.35 9.22461 152.473 8.37793 152.719 7.62207C152.971 6.86035 153.328 6.21289 153.791 5.67969C154.26 5.14648 154.819 4.73633 155.47 4.44922C156.12 4.16211 156.847 4.01855 157.649 4.01855C158.716 4.01855 159.615 4.21191 160.348 4.59863C161.086 4.98535 161.657 5.51855 162.062 6.19824C162.472 6.87793 162.718 7.65137 162.8 8.51855H160.163C160.134 8.00293 160.031 7.56641 159.855 7.20898C159.68 6.8457 159.413 6.57324 159.056 6.3916C158.704 6.2041 158.235 6.11035 157.649 6.11035C157.21 6.11035 156.826 6.19238 156.498 6.35645C156.17 6.52051 155.895 6.76953 155.672 7.10352C155.449 7.4375 155.282 7.85938 155.171 8.36914C155.065 8.87305 155.013 9.46484 155.013 10.1445V11.0498C155.013 11.7119 155.062 12.2949 155.162 12.7988C155.262 13.2969 155.414 13.7188 155.619 14.0645C155.83 14.4043 156.1 14.6621 156.428 14.8379C156.762 15.0078 157.163 15.0928 157.632 15.0928C158.183 15.0928 158.637 15.0049 158.994 14.8291C159.352 14.6533 159.624 14.3926 159.812 14.0469C160.005 13.7012 160.119 13.2705 160.154 12.7549ZM173.101 14.9434V17H166.289V14.9434H173.101ZM167.15 4.20312V17H164.514V4.20312H167.15ZM172.213 9.41504V11.4189H166.289V9.41504H172.213ZM173.092 4.20312V6.26855H166.289V4.20312H173.092Z" fill="white"/>
<path d="M3.9375 26.1484H4.91406C4.88281 26.5208 4.77865 26.8529 4.60156 27.1445C4.42448 27.4336 4.17578 27.6615 3.85547 27.8281C3.53516 27.9948 3.14583 28.0781 2.6875 28.0781C2.33594 28.0781 2.01953 28.0156 1.73828 27.8906C1.45703 27.763 1.21615 27.5833 1.01562 27.3516C0.815104 27.1172 0.661458 26.8346 0.554688 26.5039C0.450521 26.1732 0.398438 25.8034 0.398438 25.3945V24.9219C0.398438 24.513 0.451823 24.1432 0.558594 23.8125C0.667969 23.4818 0.824219 23.1992 1.02734 22.9648C1.23047 22.7279 1.47396 22.5469 1.75781 22.4219C2.04427 22.2969 2.36589 22.2344 2.72266 22.2344C3.17578 22.2344 3.55859 22.3177 3.87109 22.4844C4.18359 22.651 4.42578 22.8815 4.59766 23.1758C4.77214 23.4701 4.87891 23.8073 4.91797 24.1875H3.94141C3.91536 23.9427 3.85807 23.7331 3.76953 23.5586C3.68359 23.3841 3.55599 23.2513 3.38672 23.1602C3.21745 23.0664 2.99609 23.0195 2.72266 23.0195C2.4987 23.0195 2.30339 23.0612 2.13672 23.1445C1.97005 23.2279 1.83073 23.3503 1.71875 23.5117C1.60677 23.6732 1.52214 23.8724 1.46484 24.1094C1.41016 24.3438 1.38281 24.612 1.38281 24.9141V25.3945C1.38281 25.681 1.40755 25.9414 1.45703 26.1758C1.50911 26.4076 1.58724 26.6068 1.69141 26.7734C1.79818 26.9401 1.93359 27.069 2.09766 27.1602C2.26172 27.2513 2.45833 27.2969 2.6875 27.2969C2.96615 27.2969 3.19141 27.2526 3.36328 27.1641C3.53776 27.0755 3.66927 26.9466 3.75781 26.7773C3.84896 26.6055 3.90885 26.3958 3.9375 26.1484ZM9.5625 24.6875V25.4648H6.54297V24.6875H9.5625ZM6.78516 22.3125V28H5.80469V22.3125H6.78516ZM10.3164 22.3125V28H9.33984V22.3125H10.3164ZM15.207 27.2227V28H12.1875V27.2227H15.207ZM12.4648 22.3125V28H11.4844V22.3125H12.4648ZM14.8125 24.6875V25.4531H12.1875V24.6875H14.8125ZM15.1875 22.3125V23.0938H12.1875V22.3125H15.1875ZM19.3672 26.1484H20.3438C20.3125 26.5208 20.2083 26.8529 20.0312 27.1445C19.8542 27.4336 19.6055 27.6615 19.2852 27.8281C18.9648 27.9948 18.5755 28.0781 18.1172 28.0781C17.7656 28.0781 17.4492 28.0156 17.168 27.8906C16.8867 27.763 16.6458 27.5833 16.4453 27.3516C16.2448 27.1172 16.0911 26.8346 15.9844 26.5039C15.8802 26.1732 15.8281 25.8034 15.8281 25.3945V24.9219C15.8281 24.513 15.8815 24.1432 15.9883 23.8125C16.0977 23.4818 16.2539 23.1992 16.457 22.9648C16.6602 22.7279 16.9036 22.5469 17.1875 22.4219C17.474 22.2969 17.7956 22.2344 18.1523 22.2344C18.6055 22.2344 18.9883 22.3177 19.3008 22.4844C19.6133 22.651 19.8555 22.8815 20.0273 23.1758C20.2018 23.4701 20.3086 23.8073 20.3477 24.1875H19.3711C19.3451 23.9427 19.2878 23.7331 19.1992 23.5586C19.1133 23.3841 18.9857 23.2513 18.8164 23.1602C18.6471 23.0664 18.4258 23.0195 18.1523 23.0195C17.9284 23.0195 17.7331 23.0612 17.5664 23.1445C17.3997 23.2279 17.2604 23.3503 17.1484 23.5117C17.0365 23.6732 16.9518 23.8724 16.8945 24.1094C16.8398 24.3438 16.8125 24.612 16.8125 24.9141V25.3945C16.8125 25.681 16.8372 25.9414 16.8867 26.1758C16.9388 26.4076 17.0169 26.6068 17.1211 26.7734C17.2279 26.9401 17.3633 27.069 17.5273 27.1602C17.6914 27.2513 17.888 27.2969 18.1172 27.2969C18.3958 27.2969 18.6211 27.2526 18.793 27.1641C18.9674 27.0755 19.099 26.9466 19.1875 26.7773C19.2786 26.6055 19.3385 26.3958 19.3672 26.1484ZM22.2148 22.3125V28H21.2344V22.3125H22.2148ZM25.6328 22.3125L23.3281 25.0508L22.0156 26.4414L21.8438 25.4688L22.7812 24.3125L24.4375 22.3125H25.6328ZM24.5781 28L22.707 25.3047L23.3828 24.6367L25.7422 28H24.5781ZM30.4336 22.3125V28H29.4609V22.3125H30.4336ZM32.2188 22.3125V23.0938H27.6914V22.3125H32.2188ZM36.7266 24.6875V25.4648H33.707V24.6875H36.7266ZM33.9492 22.3125V28H32.9688V22.3125H33.9492ZM37.4805 22.3125V28H36.5039V22.3125H37.4805ZM42.3711 27.2227V28H39.3516V27.2227H42.3711ZM39.6289 22.3125V28H38.6484V22.3125H39.6289ZM41.9766 24.6875V25.4531H39.3516V24.6875H41.9766ZM42.3516 22.3125V23.0938H39.3516V22.3125H42.3516ZM46.5898 26.7227L47.7227 22.3125H48.3164L48.25 23.4492L47.0391 28H46.4219L46.5898 26.7227ZM45.7422 22.3125L46.6602 26.6875L46.7422 28H46.0859L44.7695 22.3125H45.7422ZM49.6016 26.6758L50.5078 22.3125H51.4844L50.168 28H49.5117L49.6016 26.6758ZM48.5469 22.3125L49.668 26.7344L49.832 28H49.2148L48.0234 23.4492L47.9609 22.3125H48.5469ZM54.2539 23.0703L52.5547 28H51.5273L53.668 22.3125H54.3242L54.2539 23.0703ZM55.6758 28L53.9727 23.0703L53.8984 22.3125H54.5586L56.707 28H55.6758ZM55.5938 25.8906V26.668H52.5V25.8906H55.5938ZM57.3438 22.3125H59.3555C59.7878 22.3125 60.1562 22.3776 60.4609 22.5078C60.7656 22.638 60.9987 22.8307 61.1602 23.0859C61.3242 23.3385 61.4062 23.651 61.4062 24.0234C61.4062 24.3073 61.3542 24.5573 61.25 24.7734C61.1458 24.9896 60.9987 25.1719 60.8086 25.3203C60.6185 25.4661 60.3919 25.5794 60.1289 25.6602L59.832 25.8047H58.0234L58.0156 25.0273H59.3711C59.6055 25.0273 59.8008 24.9857 59.957 24.9023C60.1133 24.819 60.2305 24.7057 60.3086 24.5625C60.3893 24.4167 60.4297 24.2526 60.4297 24.0703C60.4297 23.8724 60.3906 23.7005 60.3125 23.5547C60.237 23.4062 60.1198 23.293 59.9609 23.2148C59.8021 23.1341 59.6003 23.0938 59.3555 23.0938H58.3242V28H57.3438V22.3125ZM60.5898 28L59.2539 25.4453L60.2812 25.4414L61.6367 27.9492V28H60.5898ZM62.3828 22.3125H64.3945C64.8268 22.3125 65.1953 22.3776 65.5 22.5078C65.8047 22.638 66.0378 22.8307 66.1992 23.0859C66.3633 23.3385 66.4453 23.651 66.4453 24.0234C66.4453 24.3073 66.3932 24.5573 66.2891 24.7734C66.1849 24.9896 66.0378 25.1719 65.8477 25.3203C65.6576 25.4661 65.431 25.5794 65.168 25.6602L64.8711 25.8047H63.0625L63.0547 25.0273H64.4102C64.6445 25.0273 64.8398 24.9857 64.9961 24.9023C65.1523 24.819 65.2695 24.7057 65.3477 24.5625C65.4284 24.4167 65.4688 24.2526 65.4688 24.0703C65.4688 23.8724 65.4297 23.7005 65.3516 23.5547C65.276 23.4062 65.1589 23.293 65 23.2148C64.8411 23.1341 64.6393 23.0938 64.3945 23.0938H63.3633V28H62.3828V22.3125ZM65.6289 28L64.293 25.4453L65.3203 25.4414L66.6758 27.9492V28H65.6289ZM69.6367 23.0703L67.9375 28H66.9102L69.0508 22.3125H69.707L69.6367 23.0703ZM71.0586 28L69.3555 23.0703L69.2812 22.3125H69.9414L72.0898 28H71.0586ZM70.9766 25.8906V26.668H67.8828V25.8906H70.9766ZM77.2383 22.3125V28H76.2578L73.707 23.9258V28H72.7266V22.3125H73.707L76.2656 26.3945V22.3125H77.2383ZM80.6289 22.3125V28H79.6562V22.3125H80.6289ZM82.4141 22.3125V23.0938H77.8867V22.3125H82.4141ZM83.7695 22.3125L85.0898 25.0273L86.4102 22.3125H87.4961L85.582 25.9062V28H84.5938V25.9062L82.6797 22.3125H83.7695ZM91.0898 22.3125V28H90.1094V22.3125H91.0898ZM93.4102 24.8008V25.5781H90.8398V24.8008H93.4102ZM93.7344 22.3125V23.0938H90.8398V22.3125H93.7344ZM99.0508 25V25.3125C99.0508 25.7422 98.9948 26.1276 98.8828 26.4688C98.7708 26.8099 98.6107 27.1003 98.4023 27.3398C98.1966 27.5794 97.9492 27.763 97.6602 27.8906C97.3711 28.0156 97.0508 28.0781 96.6992 28.0781C96.3503 28.0781 96.0312 28.0156 95.7422 27.8906C95.4557 27.763 95.207 27.5794 94.9961 27.3398C94.7852 27.1003 94.6211 26.8099 94.5039 26.4688C94.3893 26.1276 94.332 25.7422 94.332 25.3125V25C94.332 24.5703 94.3893 24.1862 94.5039 23.8477C94.6185 23.5065 94.7799 23.2161 94.9883 22.9766C95.1992 22.7344 95.4479 22.5508 95.7344 22.4258C96.0234 22.2982 96.3424 22.2344 96.6914 22.2344C97.043 22.2344 97.3633 22.2982 97.6523 22.4258C97.9414 22.5508 98.1901 22.7344 98.3984 22.9766C98.6068 23.2161 98.7669 23.5065 98.8789 23.8477C98.9935 24.1862 99.0508 24.5703 99.0508 25ZM98.0703 25.3125V24.9922C98.0703 24.6745 98.0391 24.3945 97.9766 24.1523C97.9167 23.9076 97.8268 23.7031 97.707 23.5391C97.5898 23.3724 97.4453 23.2474 97.2734 23.1641C97.1016 23.0781 96.9076 23.0352 96.6914 23.0352C96.4753 23.0352 96.2826 23.0781 96.1133 23.1641C95.944 23.2474 95.7995 23.3724 95.6797 23.5391C95.5625 23.7031 95.4727 23.9076 95.4102 24.1523C95.3477 24.3945 95.3164 24.6745 95.3164 24.9922V25.3125C95.3164 25.6302 95.3477 25.9115 95.4102 26.1562C95.4727 26.401 95.5638 26.6081 95.6836 26.7773C95.806 26.944 95.9518 27.0703 96.1211 27.1562C96.2904 27.2396 96.4831 27.2812 96.6992 27.2812C96.918 27.2812 97.112 27.2396 97.2812 27.1562C97.4505 27.0703 97.5938 26.944 97.7109 26.7773C97.8281 26.6081 97.9167 26.401 97.9766 26.1562C98.0391 25.9115 98.0703 25.6302 98.0703 25.3125ZM100.031 22.3125H102.043C102.475 22.3125 102.844 22.3776 103.148 22.5078C103.453 22.638 103.686 22.8307 103.848 23.0859C104.012 23.3385 104.094 23.651 104.094 24.0234C104.094 24.3073 104.042 24.5573 103.938 24.7734C103.833 24.9896 103.686 25.1719 103.496 25.3203C103.306 25.4661 103.079 25.5794 102.816 25.6602L102.52 25.8047H100.711L100.703 25.0273H102.059C102.293 25.0273 102.488 24.9857 102.645 24.9023C102.801 24.819 102.918 24.7057 102.996 24.5625C103.077 24.4167 103.117 24.2526 103.117 24.0703C103.117 23.8724 103.078 23.7005 103 23.5547C102.924 23.4062 102.807 23.293 102.648 23.2148C102.49 23.1341 102.288 23.0938 102.043 23.0938H101.012V28H100.031V22.3125ZM103.277 28L101.941 25.4453L102.969 25.4414L104.324 27.9492V28H103.277ZM107.605 22.3125L108.926 25.0273L110.246 22.3125H111.332L109.418 25.9062V28H108.43V25.9062L106.516 22.3125H107.605ZM116.371 25V25.3125C116.371 25.7422 116.315 26.1276 116.203 26.4688C116.091 26.8099 115.931 27.1003 115.723 27.3398C115.517 27.5794 115.27 27.763 114.98 27.8906C114.691 28.0156 114.371 28.0781 114.02 28.0781C113.671 28.0781 113.352 28.0156 113.062 27.8906C112.776 27.763 112.527 27.5794 112.316 27.3398C112.105 27.1003 111.941 26.8099 111.824 26.4688C111.71 26.1276 111.652 25.7422 111.652 25.3125V25C111.652 24.5703 111.71 24.1862 111.824 23.8477C111.939 23.5065 112.1 23.2161 112.309 22.9766C112.52 22.7344 112.768 22.5508 113.055 22.4258C113.344 22.2982 113.663 22.2344 114.012 22.2344C114.363 22.2344 114.684 22.2982 114.973 22.4258C115.262 22.5508 115.51 22.7344 115.719 22.9766C115.927 23.2161 116.087 23.5065 116.199 23.8477C116.314 24.1862 116.371 24.5703 116.371 25ZM115.391 25.3125V24.9922C115.391 24.6745 115.359 24.3945 115.297 24.1523C115.237 23.9076 115.147 23.7031 115.027 23.5391C114.91 23.3724 114.766 23.2474 114.594 23.1641C114.422 23.0781 114.228 23.0352 114.012 23.0352C113.796 23.0352 113.603 23.0781 113.434 23.1641C113.264 23.2474 113.12 23.3724 113 23.5391C112.883 23.7031 112.793 23.9076 112.73 24.1523C112.668 24.3945 112.637 24.6745 112.637 24.9922V25.3125C112.637 25.6302 112.668 25.9115 112.73 26.1562C112.793 26.401 112.884 26.6081 113.004 26.7773C113.126 26.944 113.272 27.0703 113.441 27.1562C113.611 27.2396 113.803 27.2812 114.02 27.2812C114.238 27.2812 114.432 27.2396 114.602 27.1562C114.771 27.0703 114.914 26.944 115.031 26.7773C115.148 26.6081 115.237 26.401 115.297 26.1562C115.359 25.9115 115.391 25.6302 115.391 25.3125ZM120.543 22.3125H121.52V26.1133C121.52 26.5456 121.426 26.9076 121.238 27.1992C121.051 27.4909 120.796 27.7109 120.473 27.8594C120.152 28.0052 119.794 28.0781 119.398 28.0781C118.99 28.0781 118.625 28.0052 118.305 27.8594C117.984 27.7109 117.732 27.4909 117.547 27.1992C117.365 26.9076 117.273 26.5456 117.273 26.1133V22.3125H118.25V26.1133C118.25 26.3867 118.297 26.612 118.391 26.7891C118.484 26.9635 118.617 27.0924 118.789 27.1758C118.961 27.2591 119.164 27.3008 119.398 27.3008C119.633 27.3008 119.835 27.2591 120.004 27.1758C120.176 27.0924 120.309 26.9635 120.402 26.7891C120.496 26.612 120.543 26.3867 120.543 26.1133V22.3125ZM122.586 22.3125H124.598C125.03 22.3125 125.398 22.3776 125.703 22.5078C126.008 22.638 126.241 22.8307 126.402 23.0859C126.566 23.3385 126.648 23.651 126.648 24.0234C126.648 24.3073 126.596 24.5573 126.492 24.7734C126.388 24.9896 126.241 25.1719 126.051 25.3203C125.861 25.4661 125.634 25.5794 125.371 25.6602L125.074 25.8047H123.266L123.258 25.0273H124.613C124.848 25.0273 125.043 24.9857 125.199 24.9023C125.355 24.819 125.473 24.7057 125.551 24.5625C125.632 24.4167 125.672 24.2526 125.672 24.0703C125.672 23.8724 125.633 23.7005 125.555 23.5547C125.479 23.4062 125.362 23.293 125.203 23.2148C125.044 23.1341 124.842 23.0938 124.598 23.0938H123.566V28H122.586V22.3125ZM125.832 28L124.496 25.4453L125.523 25.4414L126.879 27.9492V28H125.832ZM131.777 25.8789H130.297V25.1016H131.777C132.035 25.1016 132.243 25.0599 132.402 24.9766C132.561 24.8932 132.677 24.7786 132.75 24.6328C132.826 24.4844 132.863 24.3151 132.863 24.125C132.863 23.9453 132.826 23.7773 132.75 23.6211C132.677 23.4622 132.561 23.3346 132.402 23.2383C132.243 23.1419 132.035 23.0938 131.777 23.0938H130.598V28H129.617V22.3125H131.777C132.217 22.3125 132.591 22.3906 132.898 22.5469C133.208 22.7005 133.444 22.9141 133.605 23.1875C133.767 23.4583 133.848 23.7682 133.848 24.1172C133.848 24.4844 133.767 24.7995 133.605 25.0625C133.444 25.3255 133.208 25.5273 132.898 25.668C132.591 25.8086 132.217 25.8789 131.777 25.8789ZM134.727 22.3125H136.738C137.171 22.3125 137.539 22.3776 137.844 22.5078C138.148 22.638 138.382 22.8307 138.543 23.0859C138.707 23.3385 138.789 23.651 138.789 24.0234C138.789 24.3073 138.737 24.5573 138.633 24.7734C138.529 24.9896 138.382 25.1719 138.191 25.3203C138.001 25.4661 137.775 25.5794 137.512 25.6602L137.215 25.8047H135.406L135.398 25.0273H136.754C136.988 25.0273 137.184 24.9857 137.34 24.9023C137.496 24.819 137.613 24.7057 137.691 24.5625C137.772 24.4167 137.812 24.2526 137.812 24.0703C137.812 23.8724 137.773 23.7005 137.695 23.5547C137.62 23.4062 137.503 23.293 137.344 23.2148C137.185 23.1341 136.983 23.0938 136.738 23.0938H135.707V28H134.727V22.3125ZM137.973 28L136.637 25.4453L137.664 25.4414L139.02 27.9492V28H137.973ZM144.301 25V25.3125C144.301 25.7422 144.245 26.1276 144.133 26.4688C144.021 26.8099 143.861 27.1003 143.652 27.3398C143.447 27.5794 143.199 27.763 142.91 27.8906C142.621 28.0156 142.301 28.0781 141.949 28.0781C141.6 28.0781 141.281 28.0156 140.992 27.8906C140.706 27.763 140.457 27.5794 140.246 27.3398C140.035 27.1003 139.871 26.8099 139.754 26.4688C139.639 26.1276 139.582 25.7422 139.582 25.3125V25C139.582 24.5703 139.639 24.1862 139.754 23.8477C139.868 23.5065 140.03 23.2161 140.238 22.9766C140.449 22.7344 140.698 22.5508 140.984 22.4258C141.273 22.2982 141.592 22.2344 141.941 22.2344C142.293 22.2344 142.613 22.2982 142.902 22.4258C143.191 22.5508 143.44 22.7344 143.648 22.9766C143.857 23.2161 144.017 23.5065 144.129 23.8477C144.243 24.1862 144.301 24.5703 144.301 25ZM143.32 25.3125V24.9922C143.32 24.6745 143.289 24.3945 143.227 24.1523C143.167 23.9076 143.077 23.7031 142.957 23.5391C142.84 23.3724 142.695 23.2474 142.523 23.1641C142.352 23.0781 142.158 23.0352 141.941 23.0352C141.725 23.0352 141.533 23.0781 141.363 23.1641C141.194 23.2474 141.049 23.3724 140.93 23.5391C140.812 23.7031 140.723 23.9076 140.66 24.1523C140.598 24.3945 140.566 24.6745 140.566 24.9922V25.3125C140.566 25.6302 140.598 25.9115 140.66 26.1562C140.723 26.401 140.814 26.6081 140.934 26.7773C141.056 26.944 141.202 27.0703 141.371 27.1562C141.54 27.2396 141.733 27.2812 141.949 27.2812C142.168 27.2812 142.362 27.2396 142.531 27.1562C142.701 27.0703 142.844 26.944 142.961 26.7773C143.078 26.6081 143.167 26.401 143.227 26.1562C143.289 25.9115 143.32 25.6302 143.32 25.3125ZM146.934 28H145.719L145.727 27.2227H146.934C147.285 27.2227 147.579 27.1458 147.816 26.9922C148.056 26.8385 148.236 26.6185 148.355 26.332C148.478 26.0456 148.539 25.7044 148.539 25.3086V25C148.539 24.6927 148.504 24.4206 148.434 24.1836C148.366 23.9466 148.264 23.7474 148.129 23.5859C147.996 23.4245 147.832 23.3021 147.637 23.2188C147.444 23.1354 147.221 23.0938 146.969 23.0938H145.695V22.3125H146.969C147.346 22.3125 147.691 22.3763 148.004 22.5039C148.316 22.6289 148.586 22.8099 148.812 23.0469C149.042 23.2839 149.217 23.5677 149.34 23.8984C149.462 24.2292 149.523 24.599 149.523 25.0078V25.3086C149.523 25.7174 149.462 26.0872 149.34 26.418C149.217 26.7487 149.042 27.0326 148.812 27.2695C148.583 27.5039 148.31 27.6849 147.992 27.8125C147.677 27.9375 147.324 28 146.934 28ZM146.262 22.3125V28H145.281V22.3125H146.262ZM153.699 22.3125H154.676V26.1133C154.676 26.5456 154.582 26.9076 154.395 27.1992C154.207 27.4909 153.952 27.7109 153.629 27.8594C153.309 28.0052 152.951 28.0781 152.555 28.0781C152.146 28.0781 151.781 28.0052 151.461 27.8594C151.141 27.7109 150.888 27.4909 150.703 27.1992C150.521 26.9076 150.43 26.5456 150.43 26.1133V22.3125H151.406V26.1133C151.406 26.3867 151.453 26.612 151.547 26.7891C151.641 26.9635 151.773 27.0924 151.945 27.1758C152.117 27.2591 152.32 27.3008 152.555 27.3008C152.789 27.3008 152.991 27.2591 153.16 27.1758C153.332 27.0924 153.465 26.9635 153.559 26.7891C153.652 26.612 153.699 26.3867 153.699 26.1133V22.3125ZM159.102 26.1484H160.078C160.047 26.5208 159.943 26.8529 159.766 27.1445C159.589 27.4336 159.34 27.6615 159.02 27.8281C158.699 27.9948 158.31 28.0781 157.852 28.0781C157.5 28.0781 157.184 28.0156 156.902 27.8906C156.621 27.763 156.38 27.5833 156.18 27.3516C155.979 27.1172 155.826 26.8346 155.719 26.5039C155.615 26.1732 155.562 25.8034 155.562 25.3945V24.9219C155.562 24.513 155.616 24.1432 155.723 23.8125C155.832 23.4818 155.988 23.1992 156.191 22.9648C156.395 22.7279 156.638 22.5469 156.922 22.4219C157.208 22.2969 157.53 22.2344 157.887 22.2344C158.34 22.2344 158.723 22.3177 159.035 22.4844C159.348 22.651 159.59 22.8815 159.762 23.1758C159.936 23.4701 160.043 23.8073 160.082 24.1875H159.105C159.079 23.9427 159.022 23.7331 158.934 23.5586C158.848 23.3841 158.72 23.2513 158.551 23.1602C158.382 23.0664 158.16 23.0195 157.887 23.0195C157.663 23.0195 157.467 23.0612 157.301 23.1445C157.134 23.2279 156.995 23.3503 156.883 23.5117C156.771 23.6732 156.686 23.8724 156.629 24.1094C156.574 24.3438 156.547 24.612 156.547 24.9141V25.3945C156.547 25.681 156.572 25.9414 156.621 26.1758C156.673 26.4076 156.751 26.6068 156.855 26.7734C156.962 26.9401 157.098 27.069 157.262 27.1602C157.426 27.2513 157.622 27.2969 157.852 27.2969C158.13 27.2969 158.355 27.2526 158.527 27.1641C158.702 27.0755 158.833 26.9466 158.922 26.7773C159.013 26.6055 159.073 26.3958 159.102 26.1484ZM163.191 22.3125V28H162.219V22.3125H163.191ZM164.977 22.3125V23.0938H160.449V22.3125H164.977Z" fill="#7C7B7B"/>
</svg>
