<svg width="232" height="45" viewBox="0 0 232 45" fill="none" xmlns="http://www.w3.org/2000/svg">
<path d="M5.63672 19.293L9.03516 4.9375H10.9336L11.3672 7.32812L7.74609 22H5.70703L5.63672 19.293ZM3.89062 4.9375L6.70312 19.293L6.46875 22H4.19531L0.410156 4.9375H3.89062ZM14.3555 19.2344L17.1328 4.9375H20.6133L16.8398 22H14.5664L14.3555 19.2344ZM12 4.9375L15.4219 19.3516L15.3281 22H13.2891L9.64453 7.31641L10.1133 4.9375H12ZM28.9453 7.85547L24.3047 22H20.5664L26.9062 4.9375H29.2852L28.9453 7.85547ZM32.8008 22L28.1484 7.85547L27.7734 4.9375H30.1758L36.5508 22H32.8008ZM32.5898 15.6484V18.4023H23.5781V15.6484H32.5898ZM38.1328 4.9375H44.4961C45.8008 4.9375 46.9219 5.13281 47.8594 5.52344C48.8047 5.91406 49.5312 6.49219 50.0391 7.25781C50.5469 8.02344 50.8008 8.96484 50.8008 10.082C50.8008 10.9961 50.6445 11.7812 50.332 12.4375C50.0273 13.0859 49.5938 13.6289 49.0312 14.0664C48.4766 14.4961 47.8242 14.8398 47.0742 15.0977L45.9609 15.6836H40.4297L40.4062 12.9414H44.5195C45.1367 12.9414 45.6484 12.832 46.0547 12.6133C46.4609 12.3945 46.7656 12.0898 46.9688 11.6992C47.1797 11.3086 47.2852 10.8555 47.2852 10.3398C47.2852 9.79297 47.1836 9.32031 46.9805 8.92188C46.7773 8.52344 46.4688 8.21875 46.0547 8.00781C45.6406 7.79688 45.1211 7.69141 44.4961 7.69141H41.6484V22H38.1328V4.9375ZM47.6719 22L43.7812 14.3945L47.4961 14.3711L51.4336 21.8359V22H47.6719ZM53.5078 4.9375H59.8711C61.1758 4.9375 62.2969 5.13281 63.2344 5.52344C64.1797 5.91406 64.9062 6.49219 65.4141 7.25781C65.9219 8.02344 66.1758 8.96484 66.1758 10.082C66.1758 10.9961 66.0195 11.7812 65.707 12.4375C65.4023 13.0859 64.9688 13.6289 64.4062 14.0664C63.8516 14.4961 63.1992 14.8398 62.4492 15.0977L61.3359 15.6836H55.8047L55.7812 12.9414H59.8945C60.5117 12.9414 61.0234 12.832 61.4297 12.6133C61.8359 12.3945 62.1406 12.0898 62.3438 11.6992C62.5547 11.3086 62.6602 10.8555 62.6602 10.3398C62.6602 9.79297 62.5586 9.32031 62.3555 8.92188C62.1523 8.52344 61.8438 8.21875 61.4297 8.00781C61.0156 7.79688 60.4961 7.69141 59.8711 7.69141H57.0234V22H53.5078V4.9375ZM63.0469 22L59.1562 14.3945L62.8711 14.3711L66.8086 21.8359V22H63.0469ZM75.8203 7.85547L71.1797 22H67.4414L73.7812 4.9375H76.1602L75.8203 7.85547ZM79.6758 22L75.0234 7.85547L74.6484 4.9375H77.0508L83.4258 22H79.6758ZM79.4648 15.6484V18.4023H70.4531V15.6484H79.4648ZM98.8945 4.9375V22H95.3789L88.5234 10.5625V22H85.0078V4.9375H88.5234L95.3906 16.3867V4.9375H98.8945ZM109.23 4.9375V22H105.727V4.9375H109.23ZM114.48 4.9375V7.69141H100.559V4.9375H114.48ZM119.016 4.9375L122.578 12.7188L126.141 4.9375H129.973L124.359 15.7891V22H120.797V15.7891L115.172 4.9375H119.016ZM146.391 17.5352C146.391 17.2305 146.344 16.957 146.25 16.7148C146.164 16.4648 146 16.2383 145.758 16.0352C145.516 15.8242 145.176 15.6172 144.738 15.4141C144.301 15.2109 143.734 15 143.039 14.7812C142.266 14.5312 141.531 14.25 140.836 13.9375C140.148 13.625 139.539 13.2617 139.008 12.8477C138.484 12.4258 138.07 11.9375 137.766 11.3828C137.469 10.8281 137.32 10.1836 137.32 9.44922C137.32 8.73828 137.477 8.09375 137.789 7.51562C138.102 6.92969 138.539 6.42969 139.102 6.01562C139.664 5.59375 140.328 5.26953 141.094 5.04297C141.867 4.81641 142.715 4.70312 143.637 4.70312C144.895 4.70312 145.992 4.92969 146.93 5.38281C147.867 5.83594 148.594 6.45703 149.109 7.24609C149.633 8.03516 149.895 8.9375 149.895 9.95312H146.402C146.402 9.45312 146.297 9.01562 146.086 8.64062C145.883 8.25781 145.57 7.95703 145.148 7.73828C144.734 7.51953 144.211 7.41016 143.578 7.41016C142.969 7.41016 142.461 7.50391 142.055 7.69141C141.648 7.87109 141.344 8.11719 141.141 8.42969C140.938 8.73438 140.836 9.07812 140.836 9.46094C140.836 9.75 140.906 10.0117 141.047 10.2461C141.195 10.4805 141.414 10.6992 141.703 10.9023C141.992 11.1055 142.348 11.2969 142.77 11.4766C143.191 11.6562 143.68 11.832 144.234 12.0039C145.164 12.2852 145.98 12.6016 146.684 12.9531C147.395 13.3047 147.988 13.6992 148.465 14.1367C148.941 14.5742 149.301 15.0703 149.543 15.625C149.785 16.1797 149.906 16.8086 149.906 17.5117C149.906 18.2539 149.762 18.918 149.473 19.5039C149.184 20.0898 148.766 20.5859 148.219 20.9922C147.672 21.3984 147.02 21.707 146.262 21.918C145.504 22.1289 144.656 22.2344 143.719 22.2344C142.875 22.2344 142.043 22.125 141.223 21.9062C140.402 21.6797 139.656 21.3398 138.984 20.8867C138.32 20.4336 137.789 19.8555 137.391 19.1523C136.992 18.4492 136.793 17.6172 136.793 16.6562H140.32C140.32 17.1875 140.402 17.6367 140.566 18.0039C140.73 18.3711 140.961 18.668 141.258 18.8945C141.562 19.1211 141.922 19.2852 142.336 19.3867C142.758 19.4883 143.219 19.5391 143.719 19.5391C144.328 19.5391 144.828 19.4531 145.219 19.2812C145.617 19.1094 145.91 18.8711 146.098 18.5664C146.293 18.2617 146.391 17.918 146.391 17.5352ZM163.746 19.2578V22H154.664V19.2578H163.746ZM155.812 4.9375V22H152.297V4.9375H155.812ZM162.562 11.8867V14.5586H154.664V11.8867H162.562ZM163.734 4.9375V7.69141H154.664V4.9375H163.734ZM165.797 4.9375H172.16C173.465 4.9375 174.586 5.13281 175.523 5.52344C176.469 5.91406 177.195 6.49219 177.703 7.25781C178.211 8.02344 178.465 8.96484 178.465 10.082C178.465 10.9961 178.309 11.7812 177.996 12.4375C177.691 13.0859 177.258 13.6289 176.695 14.0664C176.141 14.4961 175.488 14.8398 174.738 15.0977L173.625 15.6836H168.094L168.07 12.9414H172.184C172.801 12.9414 173.312 12.832 173.719 12.6133C174.125 12.3945 174.43 12.0898 174.633 11.6992C174.844 11.3086 174.949 10.8555 174.949 10.3398C174.949 9.79297 174.848 9.32031 174.645 8.92188C174.441 8.52344 174.133 8.21875 173.719 8.00781C173.305 7.79688 172.785 7.69141 172.16 7.69141H169.312V22H165.797V4.9375ZM175.336 22L171.445 14.3945L175.16 14.3711L179.098 21.8359V22H175.336ZM187.09 18.4375L191.109 4.9375H195.023L189.082 22H186.504L187.09 18.4375ZM183.387 4.9375L187.395 18.4375L188.004 22H185.402L179.496 4.9375H183.387ZM200.355 4.9375V22H196.852V4.9375H200.355ZM213.539 16.3398H217.043C216.973 17.4883 216.656 18.5078 216.094 19.3984C215.539 20.2891 214.762 20.9844 213.762 21.4844C212.77 21.9844 211.574 22.2344 210.176 22.2344C209.082 22.2344 208.102 22.0469 207.234 21.6719C206.367 21.2891 205.625 20.7422 205.008 20.0312C204.398 19.3203 203.934 18.4609 203.613 17.4531C203.293 16.4453 203.133 15.3164 203.133 14.0664V12.8828C203.133 11.6328 203.297 10.5039 203.625 9.49609C203.961 8.48047 204.438 7.61719 205.055 6.90625C205.68 6.19531 206.426 5.64844 207.293 5.26562C208.16 4.88281 209.129 4.69141 210.199 4.69141C211.621 4.69141 212.82 4.94922 213.797 5.46484C214.781 5.98047 215.543 6.69141 216.082 7.59766C216.629 8.50391 216.957 9.53516 217.066 10.6914H213.551C213.512 10.0039 213.375 9.42188 213.141 8.94531C212.906 8.46094 212.551 8.09766 212.074 7.85547C211.605 7.60547 210.98 7.48047 210.199 7.48047C209.613 7.48047 209.102 7.58984 208.664 7.80859C208.227 8.02734 207.859 8.35938 207.562 8.80469C207.266 9.25 207.043 9.8125 206.895 10.4922C206.754 11.1641 206.684 11.9531 206.684 12.8594V14.0664C206.684 14.9492 206.75 15.7266 206.883 16.3984C207.016 17.0625 207.219 17.625 207.492 18.0859C207.773 18.5391 208.133 18.8828 208.57 19.1172C209.016 19.3438 209.551 19.457 210.176 19.457C210.91 19.457 211.516 19.3398 211.992 19.1055C212.469 18.8711 212.832 18.5234 213.082 18.0625C213.34 17.6016 213.492 17.0273 213.539 16.3398ZM230.801 19.2578V22H221.719V19.2578H230.801ZM222.867 4.9375V22H219.352V4.9375H222.867ZM229.617 11.8867V14.5586H221.719V11.8867H229.617ZM230.789 4.9375V7.69141H221.719V4.9375H230.789Z" fill="#0C0C0C"/>
<path d="M4.92188 34.6855H6.14258C6.10352 35.151 5.97331 35.5661 5.75195 35.9307C5.5306 36.292 5.21973 36.5768 4.81934 36.7852C4.41895 36.9935 3.93229 37.0977 3.35938 37.0977C2.91992 37.0977 2.52441 37.0195 2.17285 36.8633C1.82129 36.7038 1.52018 36.4792 1.26953 36.1895C1.01888 35.8965 0.826823 35.5433 0.693359 35.1299C0.563151 34.7165 0.498047 34.2542 0.498047 33.7432V33.1523C0.498047 32.6413 0.564779 32.179 0.698242 31.7656C0.834961 31.3522 1.03027 30.999 1.28418 30.7061C1.53809 30.4098 1.84245 30.1836 2.19727 30.0273C2.55534 29.8711 2.95736 29.793 3.40332 29.793C3.96973 29.793 4.44824 29.8971 4.83887 30.1055C5.22949 30.3138 5.53223 30.6019 5.74707 30.9697C5.96517 31.3376 6.09863 31.7591 6.14746 32.2344H4.92676C4.89421 31.9284 4.82259 31.6663 4.71191 31.4482C4.60449 31.2301 4.44499 31.0641 4.2334 30.9502C4.02181 30.833 3.74512 30.7744 3.40332 30.7744C3.12337 30.7744 2.87923 30.8265 2.6709 30.9307C2.46257 31.0348 2.28841 31.1878 2.14844 31.3896C2.00846 31.5915 1.90267 31.8405 1.83105 32.1367C1.7627 32.4297 1.72852 32.765 1.72852 33.1426V33.7432C1.72852 34.1012 1.75944 34.4268 1.82129 34.7197C1.88639 35.0094 1.98405 35.2585 2.11426 35.4668C2.24772 35.6751 2.41699 35.8363 2.62207 35.9502C2.82715 36.0641 3.07292 36.1211 3.35938 36.1211C3.70768 36.1211 3.98926 36.0658 4.2041 35.9551C4.4222 35.8444 4.58659 35.6833 4.69727 35.4717C4.8112 35.2568 4.88607 34.9948 4.92188 34.6855ZM11.9531 32.8594V33.8311H8.17871V32.8594H11.9531ZM8.48145 29.8906V37H7.25586V29.8906H8.48145ZM12.8955 29.8906V37H11.6748V29.8906H12.8955ZM19.0088 36.0283V37H15.2344V36.0283H19.0088ZM15.5811 29.8906V37H14.3555V29.8906H15.5811ZM18.5156 32.8594V33.8164H15.2344V32.8594H18.5156ZM18.9844 29.8906V30.8672H15.2344V29.8906H18.9844ZM24.209 34.6855H25.4297C25.3906 35.151 25.2604 35.5661 25.0391 35.9307C24.8177 36.292 24.5068 36.5768 24.1064 36.7852C23.7061 36.9935 23.2194 37.0977 22.6465 37.0977C22.207 37.0977 21.8115 37.0195 21.46 36.8633C21.1084 36.7038 20.8073 36.4792 20.5566 36.1895C20.306 35.8965 20.1139 35.5433 19.9805 35.1299C19.8503 34.7165 19.7852 34.2542 19.7852 33.7432V33.1523C19.7852 32.6413 19.8519 32.179 19.9854 31.7656C20.1221 31.3522 20.3174 30.999 20.5713 30.7061C20.8252 30.4098 21.1296 30.1836 21.4844 30.0273C21.8424 29.8711 22.2445 29.793 22.6904 29.793C23.2568 29.793 23.7354 29.8971 24.126 30.1055C24.5166 30.3138 24.8193 30.6019 25.0342 30.9697C25.2523 31.3376 25.3857 31.7591 25.4346 32.2344H24.2139C24.1813 31.9284 24.1097 31.6663 23.999 31.4482C23.8916 31.2301 23.7321 31.0641 23.5205 30.9502C23.3089 30.833 23.0322 30.7744 22.6904 30.7744C22.4105 30.7744 22.1663 30.8265 21.958 30.9307C21.7497 31.0348 21.5755 31.1878 21.4355 31.3896C21.2956 31.5915 21.1898 31.8405 21.1182 32.1367C21.0498 32.4297 21.0156 32.765 21.0156 33.1426V33.7432C21.0156 34.1012 21.0465 34.4268 21.1084 34.7197C21.1735 35.0094 21.2712 35.2585 21.4014 35.4668C21.5348 35.6751 21.7041 35.8363 21.9092 35.9502C22.1143 36.0641 22.36 36.1211 22.6465 36.1211C22.9948 36.1211 23.2764 36.0658 23.4912 35.9551C23.7093 35.8444 23.8737 35.6833 23.9844 35.4717C24.0983 35.2568 24.1732 34.9948 24.209 34.6855ZM27.7686 29.8906V37H26.543V29.8906H27.7686ZM32.041 29.8906L29.1602 33.3135L27.5195 35.0518L27.3047 33.8359L28.4766 32.3906L30.5469 29.8906H32.041ZM30.7227 37L28.3838 33.6309L29.2285 32.7959L32.1777 37H30.7227ZM38.042 29.8906V37H36.8262V29.8906H38.042ZM40.2734 29.8906V30.8672H34.6143V29.8906H40.2734ZM45.9082 32.8594V33.8311H42.1338V32.8594H45.9082ZM42.4365 29.8906V37H41.2109V29.8906H42.4365ZM46.8506 29.8906V37H45.6299V29.8906H46.8506ZM52.9639 36.0283V37H49.1895V36.0283H52.9639ZM49.5361 29.8906V37H48.3105V29.8906H49.5361ZM52.4707 32.8594V33.8164H49.1895V32.8594H52.4707ZM52.9395 29.8906V30.8672H49.1895V29.8906H52.9395ZM58.2373 35.4033L59.6533 29.8906H60.3955L60.3125 31.3115L58.7988 37H58.0273L58.2373 35.4033ZM57.1777 29.8906L58.3252 35.3594L58.4277 37H57.6074L55.9619 29.8906H57.1777ZM62.002 35.3447L63.1348 29.8906H64.3555L62.71 37H61.8896L62.002 35.3447ZM60.6836 29.8906L62.085 35.418L62.29 37H61.5186L60.0293 31.3115L59.9512 29.8906H60.6836ZM67.8174 30.8379L65.6934 37H64.4092L67.085 29.8906H67.9053L67.8174 30.8379ZM69.5947 37L67.4658 30.8379L67.373 29.8906H68.1982L70.8838 37H69.5947ZM69.4922 34.3633V35.335H65.625V34.3633H69.4922ZM71.6797 29.8906H74.1943C74.7347 29.8906 75.1953 29.972 75.5762 30.1348C75.957 30.2975 76.2484 30.5384 76.4502 30.8574C76.6553 31.1732 76.7578 31.5638 76.7578 32.0293C76.7578 32.3841 76.6927 32.6966 76.5625 32.9668C76.4323 33.237 76.2484 33.4648 76.0107 33.6504C75.7731 33.8327 75.4899 33.9743 75.1611 34.0752L74.79 34.2559H72.5293L72.5195 33.2842H74.2139C74.5068 33.2842 74.751 33.2321 74.9463 33.1279C75.1416 33.0238 75.2881 32.8822 75.3857 32.7031C75.4867 32.5208 75.5371 32.3158 75.5371 32.0879C75.5371 31.8405 75.4883 31.6257 75.3906 31.4434C75.2962 31.2578 75.1497 31.1162 74.9512 31.0186C74.7526 30.9176 74.5003 30.8672 74.1943 30.8672H72.9053V37H71.6797V29.8906ZM75.7373 37L74.0674 33.8066L75.3516 33.8018L77.0459 36.9365V37H75.7373ZM77.9785 29.8906H80.4932C81.0335 29.8906 81.4941 29.972 81.875 30.1348C82.2559 30.2975 82.5472 30.5384 82.749 30.8574C82.9541 31.1732 83.0566 31.5638 83.0566 32.0293C83.0566 32.3841 82.9915 32.6966 82.8613 32.9668C82.7311 33.237 82.5472 33.4648 82.3096 33.6504C82.0719 33.8327 81.7887 33.9743 81.46 34.0752L81.0889 34.2559H78.8281L78.8184 33.2842H80.5127C80.8057 33.2842 81.0498 33.2321 81.2451 33.1279C81.4404 33.0238 81.5869 32.8822 81.6846 32.7031C81.7855 32.5208 81.8359 32.3158 81.8359 32.0879C81.8359 31.8405 81.7871 31.6257 81.6895 31.4434C81.5951 31.2578 81.4486 31.1162 81.25 31.0186C81.0514 30.9176 80.7992 30.8672 80.4932 30.8672H79.2041V37H77.9785V29.8906ZM82.0361 37L80.3662 33.8066L81.6504 33.8018L83.3447 36.9365V37H82.0361ZM87.0459 30.8379L84.9219 37H83.6377L86.3135 29.8906H87.1338L87.0459 30.8379ZM88.8232 37L86.6943 30.8379L86.6016 29.8906H87.4268L90.1123 37H88.8232ZM88.7207 34.3633V35.335H84.8535V34.3633H88.7207ZM96.5479 29.8906V37H95.3223L92.1338 31.9072V37H90.9082V29.8906H92.1338L95.332 34.9932V29.8906H96.5479ZM100.786 29.8906V37H99.5703V29.8906H100.786ZM103.018 29.8906V30.8672H97.3584V29.8906H103.018ZM104.712 29.8906L106.362 33.2842L108.013 29.8906H109.37L106.978 34.3828V37H105.742V34.3828L103.35 29.8906H104.712ZM113.862 29.8906V37H112.637V29.8906H113.862ZM116.763 33.001V33.9727H113.55V33.001H116.763ZM117.168 29.8906V30.8672H113.55V29.8906H117.168ZM123.813 33.25V33.6406C123.813 34.1777 123.743 34.6595 123.604 35.0859C123.464 35.5124 123.263 35.8753 123.003 36.1748C122.746 36.4743 122.437 36.7038 122.075 36.8633C121.714 37.0195 121.313 37.0977 120.874 37.0977C120.438 37.0977 120.039 37.0195 119.678 36.8633C119.32 36.7038 119.009 36.4743 118.745 36.1748C118.481 35.8753 118.276 35.5124 118.13 35.0859C117.987 34.6595 117.915 34.1777 117.915 33.6406V33.25C117.915 32.7129 117.987 32.2327 118.13 31.8096C118.273 31.3831 118.475 31.0202 118.735 30.7207C118.999 30.418 119.31 30.1885 119.668 30.0322C120.029 29.8727 120.428 29.793 120.864 29.793C121.304 29.793 121.704 29.8727 122.065 30.0322C122.427 30.1885 122.738 30.418 122.998 30.7207C123.258 31.0202 123.459 31.3831 123.599 31.8096C123.742 32.2327 123.813 32.7129 123.813 33.25ZM122.588 33.6406V33.2402C122.588 32.8431 122.549 32.4932 122.471 32.1904C122.396 31.8844 122.284 31.6289 122.134 31.4238C121.987 31.2155 121.807 31.0592 121.592 30.9551C121.377 30.8477 121.134 30.7939 120.864 30.7939C120.594 30.7939 120.353 30.8477 120.142 30.9551C119.93 31.0592 119.749 31.2155 119.6 31.4238C119.453 31.6289 119.341 31.8844 119.263 32.1904C119.185 32.4932 119.146 32.8431 119.146 33.2402V33.6406C119.146 34.0378 119.185 34.3893 119.263 34.6953C119.341 35.0013 119.455 35.2601 119.604 35.4717C119.757 35.68 119.94 35.8379 120.151 35.9453C120.363 36.0495 120.604 36.1016 120.874 36.1016C121.147 36.1016 121.39 36.0495 121.602 35.9453C121.813 35.8379 121.992 35.68 122.139 35.4717C122.285 35.2601 122.396 35.0013 122.471 34.6953C122.549 34.3893 122.588 34.0378 122.588 33.6406ZM125.039 29.8906H127.554C128.094 29.8906 128.555 29.972 128.936 30.1348C129.316 30.2975 129.608 30.5384 129.81 30.8574C130.015 31.1732 130.117 31.5638 130.117 32.0293C130.117 32.3841 130.052 32.6966 129.922 32.9668C129.792 33.237 129.608 33.4648 129.37 33.6504C129.132 33.8327 128.849 33.9743 128.521 34.0752L128.149 34.2559H125.889L125.879 33.2842H127.573C127.866 33.2842 128.11 33.2321 128.306 33.1279C128.501 33.0238 128.647 32.8822 128.745 32.7031C128.846 32.5208 128.896 32.3158 128.896 32.0879C128.896 31.8405 128.848 31.6257 128.75 31.4434C128.656 31.2578 128.509 31.1162 128.311 31.0186C128.112 30.9176 127.86 30.8672 127.554 30.8672H126.265V37H125.039V29.8906ZM129.097 37L127.427 33.8066L128.711 33.8018L130.405 36.9365V37H129.097ZM134.507 29.8906L136.157 33.2842L137.808 29.8906H139.165L136.772 34.3828V37H135.537V34.3828L133.145 29.8906H134.507ZM145.464 33.25V33.6406C145.464 34.1777 145.394 34.6595 145.254 35.0859C145.114 35.5124 144.914 35.8753 144.653 36.1748C144.396 36.4743 144.087 36.7038 143.726 36.8633C143.364 37.0195 142.964 37.0977 142.524 37.0977C142.088 37.0977 141.689 37.0195 141.328 36.8633C140.97 36.7038 140.659 36.4743 140.396 36.1748C140.132 35.8753 139.927 35.5124 139.78 35.0859C139.637 34.6595 139.565 34.1777 139.565 33.6406V33.25C139.565 32.7129 139.637 32.2327 139.78 31.8096C139.924 31.3831 140.125 31.0202 140.386 30.7207C140.649 30.418 140.96 30.1885 141.318 30.0322C141.68 29.8727 142.078 29.793 142.515 29.793C142.954 29.793 143.354 29.8727 143.716 30.0322C144.077 30.1885 144.388 30.418 144.648 30.7207C144.909 31.0202 145.109 31.3831 145.249 31.8096C145.392 32.2327 145.464 32.7129 145.464 33.25ZM144.238 33.6406V33.2402C144.238 32.8431 144.199 32.4932 144.121 32.1904C144.046 31.8844 143.934 31.6289 143.784 31.4238C143.638 31.2155 143.457 31.0592 143.242 30.9551C143.027 30.8477 142.785 30.7939 142.515 30.7939C142.244 30.7939 142.004 30.8477 141.792 30.9551C141.58 31.0592 141.4 31.2155 141.25 31.4238C141.104 31.6289 140.991 31.8844 140.913 32.1904C140.835 32.4932 140.796 32.8431 140.796 33.2402V33.6406C140.796 34.0378 140.835 34.3893 140.913 34.6953C140.991 35.0013 141.105 35.2601 141.255 35.4717C141.408 35.68 141.59 35.8379 141.802 35.9453C142.013 36.0495 142.254 36.1016 142.524 36.1016C142.798 36.1016 143.04 36.0495 143.252 35.9453C143.464 35.8379 143.643 35.68 143.789 35.4717C143.936 35.2601 144.046 35.0013 144.121 34.6953C144.199 34.3893 144.238 34.0378 144.238 33.6406ZM150.679 29.8906H151.899V34.6416C151.899 35.182 151.782 35.6344 151.548 35.999C151.313 36.3636 150.994 36.6387 150.591 36.8242C150.19 37.0065 149.743 37.0977 149.248 37.0977C148.737 37.0977 148.281 37.0065 147.881 36.8242C147.48 36.6387 147.165 36.3636 146.934 35.999C146.706 35.6344 146.592 35.182 146.592 34.6416V29.8906H147.812V34.6416C147.812 34.9834 147.871 35.265 147.988 35.4863C148.105 35.7044 148.271 35.8656 148.486 35.9697C148.701 36.0739 148.955 36.126 149.248 36.126C149.541 36.126 149.793 36.0739 150.005 35.9697C150.22 35.8656 150.386 35.7044 150.503 35.4863C150.62 35.265 150.679 34.9834 150.679 34.6416V29.8906ZM153.232 29.8906H155.747C156.287 29.8906 156.748 29.972 157.129 30.1348C157.51 30.2975 157.801 30.5384 158.003 30.8574C158.208 31.1732 158.311 31.5638 158.311 32.0293C158.311 32.3841 158.245 32.6966 158.115 32.9668C157.985 33.237 157.801 33.4648 157.563 33.6504C157.326 33.8327 157.043 33.9743 156.714 34.0752L156.343 34.2559H154.082L154.072 33.2842H155.767C156.06 33.2842 156.304 33.2321 156.499 33.1279C156.694 33.0238 156.841 32.8822 156.938 32.7031C157.039 32.5208 157.09 32.3158 157.09 32.0879C157.09 31.8405 157.041 31.6257 156.943 31.4434C156.849 31.2578 156.702 31.1162 156.504 31.0186C156.305 30.9176 156.053 30.8672 155.747 30.8672H154.458V37H153.232V29.8906ZM157.29 37L155.62 33.8066L156.904 33.8018L158.599 36.9365V37H157.29ZM164.722 34.3486H162.871V33.377H164.722C165.044 33.377 165.304 33.3249 165.503 33.2207C165.701 33.1165 165.846 32.9733 165.938 32.791C166.032 32.6055 166.079 32.3939 166.079 32.1562C166.079 31.9316 166.032 31.7217 165.938 31.5264C165.846 31.3278 165.701 31.1683 165.503 31.0479C165.304 30.9274 165.044 30.8672 164.722 30.8672H163.247V37H162.021V29.8906H164.722C165.272 29.8906 165.739 29.9883 166.123 30.1836C166.51 30.3757 166.805 30.6426 167.007 30.9844C167.209 31.3229 167.31 31.7103 167.31 32.1465C167.31 32.6055 167.209 32.9993 167.007 33.3281C166.805 33.6569 166.51 33.9092 166.123 34.085C165.739 34.2607 165.272 34.3486 164.722 34.3486ZM168.408 29.8906H170.923C171.463 29.8906 171.924 29.972 172.305 30.1348C172.686 30.2975 172.977 30.5384 173.179 30.8574C173.384 31.1732 173.486 31.5638 173.486 32.0293C173.486 32.3841 173.421 32.6966 173.291 32.9668C173.161 33.237 172.977 33.4648 172.739 33.6504C172.502 33.8327 172.218 33.9743 171.89 34.0752L171.519 34.2559H169.258L169.248 33.2842H170.942C171.235 33.2842 171.479 33.2321 171.675 33.1279C171.87 33.0238 172.017 32.8822 172.114 32.7031C172.215 32.5208 172.266 32.3158 172.266 32.0879C172.266 31.8405 172.217 31.6257 172.119 31.4434C172.025 31.2578 171.878 31.1162 171.68 31.0186C171.481 30.9176 171.229 30.8672 170.923 30.8672H169.634V37H168.408V29.8906ZM172.466 37L170.796 33.8066L172.08 33.8018L173.774 36.9365V37H172.466ZM180.376 33.25V33.6406C180.376 34.1777 180.306 34.6595 180.166 35.0859C180.026 35.5124 179.826 35.8753 179.565 36.1748C179.308 36.4743 178.999 36.7038 178.638 36.8633C178.276 37.0195 177.876 37.0977 177.437 37.0977C177 37.0977 176.602 37.0195 176.24 36.8633C175.882 36.7038 175.571 36.4743 175.308 36.1748C175.044 35.8753 174.839 35.5124 174.692 35.0859C174.549 34.6595 174.478 34.1777 174.478 33.6406V33.25C174.478 32.7129 174.549 32.2327 174.692 31.8096C174.836 31.3831 175.037 31.0202 175.298 30.7207C175.562 30.418 175.872 30.1885 176.23 30.0322C176.592 29.8727 176.991 29.793 177.427 29.793C177.866 29.793 178.267 29.8727 178.628 30.0322C178.989 30.1885 179.3 30.418 179.561 30.7207C179.821 31.0202 180.021 31.3831 180.161 31.8096C180.304 32.2327 180.376 32.7129 180.376 33.25ZM179.15 33.6406V33.2402C179.15 32.8431 179.111 32.4932 179.033 32.1904C178.958 31.8844 178.846 31.6289 178.696 31.4238C178.55 31.2155 178.369 31.0592 178.154 30.9551C177.939 30.8477 177.697 30.7939 177.427 30.7939C177.157 30.7939 176.916 30.8477 176.704 30.9551C176.493 31.0592 176.312 31.2155 176.162 31.4238C176.016 31.6289 175.903 31.8844 175.825 32.1904C175.747 32.4932 175.708 32.8431 175.708 33.2402V33.6406C175.708 34.0378 175.747 34.3893 175.825 34.6953C175.903 35.0013 176.017 35.2601 176.167 35.4717C176.32 35.68 176.502 35.8379 176.714 35.9453C176.925 36.0495 177.166 36.1016 177.437 36.1016C177.71 36.1016 177.952 36.0495 178.164 35.9453C178.376 35.8379 178.555 35.68 178.701 35.4717C178.848 35.2601 178.958 35.0013 179.033 34.6953C179.111 34.3893 179.15 34.0378 179.15 33.6406ZM183.667 37H182.148L182.158 36.0283H183.667C184.106 36.0283 184.474 35.9323 184.771 35.7402C185.07 35.5482 185.295 35.2731 185.444 34.915C185.597 34.557 185.674 34.1305 185.674 33.6357V33.25C185.674 32.8659 185.63 32.5257 185.542 32.2295C185.457 31.9333 185.33 31.6842 185.161 31.4824C184.995 31.2806 184.79 31.1276 184.546 31.0234C184.305 30.9193 184.027 30.8672 183.711 30.8672H182.119V29.8906H183.711C184.183 29.8906 184.614 29.9704 185.005 30.1299C185.396 30.2861 185.732 30.5124 186.016 30.8086C186.302 31.1048 186.522 31.4596 186.675 31.873C186.828 32.2865 186.904 32.7487 186.904 33.2598V33.6357C186.904 34.1468 186.828 34.609 186.675 35.0225C186.522 35.4359 186.302 35.7907 186.016 36.0869C185.729 36.3799 185.387 36.6061 184.99 36.7656C184.596 36.9219 184.155 37 183.667 37ZM182.827 29.8906V37H181.602V29.8906H182.827ZM192.124 29.8906H193.345V34.6416C193.345 35.182 193.228 35.6344 192.993 35.999C192.759 36.3636 192.44 36.6387 192.036 36.8242C191.636 37.0065 191.188 37.0977 190.693 37.0977C190.182 37.0977 189.727 37.0065 189.326 36.8242C188.926 36.6387 188.61 36.3636 188.379 35.999C188.151 35.6344 188.037 35.182 188.037 34.6416V29.8906H189.258V34.6416C189.258 34.9834 189.316 35.265 189.434 35.4863C189.551 35.7044 189.717 35.8656 189.932 35.9697C190.146 36.0739 190.4 36.126 190.693 36.126C190.986 36.126 191.239 36.0739 191.45 35.9697C191.665 35.8656 191.831 35.7044 191.948 35.4863C192.065 35.265 192.124 34.9834 192.124 34.6416V29.8906ZM198.877 34.6855H200.098C200.059 35.151 199.928 35.5661 199.707 35.9307C199.486 36.292 199.175 36.5768 198.774 36.7852C198.374 36.9935 197.887 37.0977 197.314 37.0977C196.875 37.0977 196.479 37.0195 196.128 36.8633C195.776 36.7038 195.475 36.4792 195.225 36.1895C194.974 35.8965 194.782 35.5433 194.648 35.1299C194.518 34.7165 194.453 34.2542 194.453 33.7432V33.1523C194.453 32.6413 194.52 32.179 194.653 31.7656C194.79 31.3522 194.985 30.999 195.239 30.7061C195.493 30.4098 195.798 30.1836 196.152 30.0273C196.51 29.8711 196.912 29.793 197.358 29.793C197.925 29.793 198.403 29.8971 198.794 30.1055C199.185 30.3138 199.487 30.6019 199.702 30.9697C199.92 31.3376 200.054 31.7591 200.103 32.2344H198.882C198.849 31.9284 198.778 31.6663 198.667 31.4482C198.56 31.2301 198.4 31.0641 198.188 30.9502C197.977 30.833 197.7 30.7744 197.358 30.7744C197.078 30.7744 196.834 30.8265 196.626 30.9307C196.418 31.0348 196.243 31.1878 196.104 31.3896C195.964 31.5915 195.858 31.8405 195.786 32.1367C195.718 32.4297 195.684 32.765 195.684 33.1426V33.7432C195.684 34.1012 195.715 34.4268 195.776 34.7197C195.841 35.0094 195.939 35.2585 196.069 35.4668C196.203 35.6751 196.372 35.8363 196.577 35.9502C196.782 36.0641 197.028 36.1211 197.314 36.1211C197.663 36.1211 197.944 36.0658 198.159 35.9551C198.377 35.8444 198.542 35.6833 198.652 35.4717C198.766 35.2568 198.841 34.9948 198.877 34.6855ZM203.989 29.8906V37H202.773V29.8906H203.989ZM206.221 29.8906V30.8672H200.562V29.8906H206.221Z" fill="#7C7B7B"/>
</svg>
